<svg xmlns="http://www.w3.org/2000/svg" xmlns:xlink="http://www.w3.org/1999/xlink" width="128" zoomAndPan="magnify" viewBox="0 0 96 95.999999" height="128" preserveAspectRatio="xMidYMid meet" version="1.0"><defs><clipPath id="b752946fc9"><path d="M 7.089844 0.65625 L 88.839844 0.65625 L 88.839844 95.15625 L 7.089844 95.15625 Z M 7.089844 0.65625 " clip-rule="nonzero"/></clipPath></defs><g clip-path="url(#b752946fc9)"><path fill="#000000" d="M 81.296875 30.808594 L 82.761719 29.347656 C 84.140625 27.96875 84.140625 25.726562 82.761719 24.347656 L 78.019531 19.609375 C 76.640625 18.230469 74.394531 18.230469 73.015625 19.609375 L 71.550781 21.074219 C 66.667969 17.613281 60.996094 15.199219 54.863281 14.152344 L 54.863281 10.035156 L 58.777344 10.035156 C 60.726562 10.035156 62.316406 8.449219 62.316406 6.5 L 62.316406 4.195312 C 62.316406 2.242188 60.726562 0.65625 58.777344 0.65625 L 37.167969 0.65625 C 35.21875 0.65625 33.632812 2.242188 33.632812 4.195312 L 33.632812 6.5 C 33.632812 8.449219 35.21875 10.035156 37.167969 10.035156 L 41.082031 10.035156 L 41.082031 14.152344 C 34.949219 15.199219 29.277344 17.613281 24.394531 21.074219 L 22.933594 19.609375 C 21.550781 18.230469 19.308594 18.230469 17.925781 19.609375 L 13.183594 24.347656 C 12.519531 25.015625 12.152344 25.902344 12.152344 26.847656 C 12.152344 27.792969 12.519531 28.679688 13.183594 29.347656 L 14.648438 30.808594 C 9.921875 37.46875 7.136719 45.597656 7.136719 54.363281 C 7.136719 76.855469 25.457031 95.15625 47.972656 95.15625 C 70.488281 95.15625 88.808594 76.855469 88.808594 54.363281 C 88.808594 45.597656 86.027344 37.46875 81.296875 30.808594 Z M 74.910156 21.503906 C 75.246094 21.171875 75.789062 21.171875 76.125 21.503906 L 80.863281 26.242188 C 81.027344 26.402344 81.113281 26.617188 81.113281 26.847656 C 81.113281 27.078125 81.027344 27.292969 80.863281 27.453125 L 79.65625 28.660156 C 77.882812 26.480469 75.886719 24.484375 73.703125 22.710938 Z M 36.3125 6.5 L 36.3125 4.195312 C 36.3125 3.722656 36.695312 3.335938 37.167969 3.335938 L 58.777344 3.335938 C 59.25 3.335938 59.632812 3.722656 59.632812 4.195312 L 59.632812 6.5 C 59.632812 6.972656 59.25 7.355469 58.777344 7.355469 L 37.167969 7.355469 C 36.695312 7.355469 36.3125 6.972656 36.3125 6.5 Z M 43.761719 10.035156 L 52.183594 10.035156 L 52.183594 13.785156 C 50.800781 13.640625 49.394531 13.570312 47.972656 13.570312 C 46.550781 13.570312 45.148438 13.640625 43.761719 13.785156 Z M 15.082031 27.453125 C 14.921875 27.292969 14.832031 27.078125 14.832031 26.847656 C 14.832031 26.617188 14.921875 26.402344 15.082031 26.242188 L 19.824219 21.503906 C 20.15625 21.167969 20.703125 21.171875 21.035156 21.503906 L 22.242188 22.710938 C 20.0625 24.484375 18.0625 26.480469 16.289062 28.660156 Z M 47.972656 92.480469 C 26.933594 92.480469 9.820312 75.378906 9.820312 54.363281 C 9.820312 33.347656 26.933594 16.246094 47.972656 16.246094 C 69.011719 16.246094 86.128906 33.347656 86.128906 54.363281 C 86.128906 75.378906 69.011719 92.480469 47.972656 92.480469 Z M 47.972656 22.273438 C 30.261719 22.273438 15.851562 36.667969 15.851562 54.363281 C 15.851562 72.058594 30.261719 86.453125 47.972656 86.453125 C 65.683594 86.453125 80.09375 72.058594 80.09375 54.363281 C 80.09375 36.667969 65.683594 22.273438 47.972656 22.273438 Z M 47.972656 83.773438 C 31.738281 83.773438 18.53125 70.582031 18.53125 54.363281 C 18.53125 38.148438 31.738281 24.953125 47.972656 24.953125 C 64.207031 24.953125 77.414062 38.144531 77.414062 54.363281 C 77.414062 70.582031 64.207031 83.773438 47.972656 83.773438 Z M 62.285156 32.277344 L 60.078125 36.097656 C 59.828125 36.527344 59.378906 36.765625 58.914062 36.765625 C 58.6875 36.765625 58.457031 36.707031 58.246094 36.585938 C 57.605469 36.21875 57.386719 35.398438 57.757812 34.757812 L 59.960938 30.941406 C 60.332031 30.300781 61.152344 30.082031 61.792969 30.449219 C 62.433594 30.820312 62.652344 31.636719 62.285156 32.277344 Z M 65.765625 44.101562 C 65.398438 43.460938 65.617188 42.640625 66.257812 42.269531 L 70.078125 40.066406 C 70.722656 39.695312 71.539062 39.917969 71.910156 40.558594 C 72.28125 41.199219 72.0625 42.015625 71.417969 42.386719 L 67.597656 44.589844 C 67.386719 44.710938 67.15625 44.769531 66.929688 44.769531 C 66.464844 44.769531 66.015625 44.53125 65.765625 44.101562 Z M 75.613281 54.363281 C 75.613281 55.101562 75.011719 55.703125 74.273438 55.703125 L 69.859375 55.703125 C 69.121094 55.703125 68.519531 55.101562 68.519531 54.363281 C 68.519531 53.625 69.121094 53.023438 69.859375 53.023438 L 74.273438 53.023438 C 75.011719 53.023438 75.613281 53.625 75.613281 54.363281 Z M 71.910156 68.167969 C 71.664062 68.597656 71.210938 68.839844 70.75 68.839844 C 70.519531 68.839844 70.289062 68.78125 70.078125 68.660156 L 66.257812 66.457031 C 65.617188 66.085938 65.398438 65.265625 65.765625 64.625 C 66.136719 63.984375 66.957031 63.765625 67.597656 64.136719 L 71.417969 66.339844 C 72.0625 66.710938 72.28125 67.53125 71.910156 68.167969 Z M 62.285156 76.449219 C 62.652344 77.089844 62.433594 77.90625 61.792969 78.277344 C 61.582031 78.398438 61.351562 78.457031 61.125 78.457031 C 60.660156 78.457031 60.210938 78.214844 59.960938 77.785156 L 57.757812 73.96875 C 57.386719 73.328125 57.605469 72.507812 58.246094 72.140625 C 58.886719 71.769531 59.707031 71.988281 60.078125 72.628906 Z M 49.3125 76.230469 L 49.3125 80.636719 C 49.3125 81.378906 48.714844 81.976562 47.972656 81.976562 C 47.234375 81.976562 46.632812 81.378906 46.632812 80.636719 L 46.632812 76.230469 C 46.632812 75.488281 47.234375 74.890625 47.972656 74.890625 C 48.714844 74.890625 49.3125 75.488281 49.3125 76.230469 Z M 38.191406 73.96875 L 35.984375 77.785156 C 35.734375 78.214844 35.285156 78.457031 34.820312 78.457031 C 34.59375 78.457031 34.363281 78.398438 34.152344 78.277344 C 33.511719 77.90625 33.292969 77.089844 33.664062 76.449219 L 35.867188 72.628906 C 36.238281 71.988281 37.058594 71.769531 37.699219 72.140625 C 38.339844 72.507812 38.558594 73.328125 38.191406 73.96875 Z M 30.179688 64.625 C 30.550781 65.265625 30.328125 66.085938 29.6875 66.457031 L 25.867188 68.660156 C 25.65625 68.78125 25.425781 68.839844 25.199219 68.839844 C 24.734375 68.839844 24.285156 68.597656 24.035156 68.167969 C 23.664062 67.53125 23.886719 66.710938 24.527344 66.339844 L 28.347656 64.136719 C 28.988281 63.765625 29.808594 63.984375 30.179688 64.625 Z M 26.085938 55.703125 L 21.671875 55.703125 C 20.933594 55.703125 20.332031 55.101562 20.332031 54.363281 C 20.332031 53.625 20.933594 53.023438 21.671875 53.023438 L 26.085938 53.023438 C 26.824219 53.023438 27.425781 53.625 27.425781 54.363281 C 27.425781 55.101562 26.824219 55.703125 26.085938 55.703125 Z M 30.179688 44.101562 C 29.929688 44.53125 29.480469 44.769531 29.015625 44.769531 C 28.789062 44.769531 28.558594 44.710938 28.347656 44.589844 L 24.527344 42.386719 C 23.886719 42.015625 23.664062 41.199219 24.035156 40.558594 C 24.40625 39.917969 25.226562 39.695312 25.867188 40.066406 L 29.6875 42.269531 C 30.328125 42.640625 30.550781 43.460938 30.179688 44.101562 Z M 38.191406 34.757812 C 38.558594 35.398438 38.339844 36.21875 37.699219 36.585938 C 37.488281 36.707031 37.257812 36.765625 37.03125 36.765625 C 36.566406 36.765625 36.117188 36.527344 35.867188 36.097656 L 33.664062 32.277344 C 33.292969 31.636719 33.511719 30.820312 34.152344 30.449219 C 34.792969 30.082031 35.613281 30.300781 35.984375 30.941406 Z M 49.3125 50.367188 L 49.3125 38.511719 C 49.3125 37.773438 48.714844 37.171875 47.972656 37.171875 C 47.234375 37.171875 46.632812 37.773438 46.632812 38.511719 L 46.632812 50.367188 C 44.960938 50.929688 43.753906 52.507812 43.753906 54.363281 C 43.753906 56.6875 45.644531 58.578125 47.972656 58.578125 C 50.300781 58.578125 52.191406 56.6875 52.191406 54.363281 C 52.191406 52.507812 50.984375 50.929688 49.3125 50.367188 Z M 47.972656 55.902344 C 47.125 55.902344 46.433594 55.210938 46.433594 54.363281 C 46.433594 53.515625 47.125 52.824219 47.972656 52.824219 C 48.820312 52.824219 49.511719 53.515625 49.511719 54.363281 C 49.511719 55.210938 48.820312 55.902344 47.972656 55.902344 Z M 46.632812 32.496094 L 46.632812 28.089844 C 46.632812 27.351562 47.234375 26.75 47.972656 26.75 C 48.714844 26.75 49.3125 27.351562 49.3125 28.089844 L 49.3125 32.496094 C 49.3125 33.238281 48.714844 33.835938 47.972656 33.835938 C 47.234375 33.835938 46.632812 33.238281 46.632812 32.496094 Z M 46.632812 32.496094 " fill-opacity="1" fill-rule="nonzero"/></g></svg>