<?xml version="1.0" standalone="no"?>
<!DOCTYPE svg PUBLIC "-//W3C//DTD SVG 20010904//EN"
 "http://www.w3.org/TR/2001/REC-SVG-20010904/DTD/svg10.dtd">
<svg version="1.0" xmlns="http://www.w3.org/2000/svg"
 width="700.000000pt" height="700.000000pt" viewBox="0 0 700.000000 700.000000"
 preserveAspectRatio="xMidYMid meet">
<metadata>
Created by potrace 1.14, written by Peter Selinger 2001-2017
</metadata>
<g transform="translate(0.000000,700.000000) scale(0.100000,-0.100000)"
fill="#000000" stroke="none">
<path d="M2620 6937 c-19 -6 -58 -34 -87 -62 -69 -68 -83 -117 -80 -285 2
-108 6 -132 26 -173 30 -61 62 -93 127 -123 47 -22 64 -24 217 -25 92 -1 168
-4 168 -8 4 -22 4 -291 -1 -292 -9 -1 -31 -6 -152 -33 -347 -79 -708 -234
-986 -423 -34 -24 -66 -43 -70 -43 -5 0 -35 27 -67 59 -82 84 -143 115 -222
114 -105 -1 -142 -26 -365 -250 -218 -219 -240 -252 -240 -352 0 -78 30 -137
111 -218 l68 -67 -79 -122 c-43 -68 -78 -125 -78 -128 0 -3 -16 -31 -34 -64
-95 -161 -245 -556 -281 -740 -2 -9 -10 -51 -18 -92 -9 -41 -19 -97 -22 -125
-4 -27 -9 -61 -11 -75 -25 -140 -24 -678 1 -752 2 -7 7 -37 10 -66 3 -30 7
-57 9 -60 2 -4 7 -27 10 -52 28 -208 170 -612 295 -839 23 -41 41 -75 41 -77
0 -8 110 -177 169 -259 141 -197 352 -423 519 -557 44 -35 92 -74 108 -86 73
-59 292 -196 414 -260 317 -166 691 -283 1005 -317 28 -3 73 -8 100 -11 94
-12 430 -10 555 2 143 14 185 20 255 34 28 6 59 12 70 14 157 31 422 113 549
171 190 85 323 156 455 242 78 50 219 150 231 163 3 3 30 25 60 50 291 237
561 572 747 930 69 132 197 453 217 545 1 6 5 19 9 30 3 11 8 31 11 45 2 14
11 54 20 90 26 106 50 265 62 410 9 104 9 396 0 482 -14 127 -17 154 -27 213
-66 421 -223 828 -451 1169 l-59 88 69 72 c88 91 107 130 107 221 -1 52 -6 81
-23 112 -13 24 -110 130 -224 244 -224 224 -251 243 -353 242 -83 -1 -127 -23
-213 -106 -61 -59 -76 -69 -90 -60 -251 160 -421 251 -614 327 -135 53 -345
116 -468 140 -47 10 -93 20 -102 22 -16 5 -18 21 -18 153 l0 148 161 2 c88 0
178 5 199 11 60 16 121 69 153 132 27 53 29 63 30 195 2 137 1 141 -28 198
-34 66 -93 118 -153 135 -53 14 -1695 12 -1742 -3z m1711 -206 c16 -19 19 -40
19 -123 0 -89 -2 -101 -22 -121 l-23 -23 -812 1 c-649 0 -815 3 -825 13 -29
29 -26 244 4 266 12 9 215 12 828 12 l812 -1 19 -24z m-526 -591 c1 -69 0
-130 -2 -135 -2 -7 -24 -8 -61 -4 -31 4 -168 6 -304 5 l-248 -3 0 134 0 133
307 -3 308 -2 0 -125z m-70 -335 c132 -12 254 -31 365 -57 47 -11 96 -22 109
-24 132 -26 456 -156 633 -255 242 -135 431 -280 631 -482 363 -365 617 -822
732 -1311 24 -102 27 -119 45 -236 19 -127 21 -157 25 -355 3 -175 -2 -291
-20 -415 -3 -19 -7 -53 -11 -75 -49 -346 -205 -750 -413 -1070 -40 -61 -147
-211 -161 -225 -3 -3 -34 -39 -69 -80 -180 -209 -427 -417 -670 -564 -174
-106 -337 -182 -531 -248 -156 -53 -235 -74 -416 -108 -94 -17 -137 -23 -274
-35 -129 -12 -421 -6 -530 10 -14 2 -50 7 -80 10 -81 9 -311 61 -423 96 -703
217 -1300 714 -1647 1374 -117 224 -234 560 -266 765 -3 19 -7 42 -9 50 -2 8
-7 35 -10 60 -3 25 -8 61 -10 80 -22 164 -22 540 -1 645 2 11 7 45 11 75 5 30
9 62 11 70 22 153 97 420 158 565 9 22 22 54 29 70 28 70 138 278 197 372 156
249 367 490 580 663 30 25 57 47 60 50 3 3 37 28 75 57 114 83 239 160 368
228 126 65 392 175 424 175 11 0 23 4 29 9 11 11 230 64 349 85 119 21 152 25
270 32 55 4 101 8 102 9 6 4 272 -4 338 -10z m-2168 -408 l55 -53 -64 -54
c-78 -67 -280 -269 -332 -333 l-38 -47 -49 47 c-86 85 -90 76 132 299 141 140
201 194 218 194 14 0 44 -20 78 -53z m4154 -134 c104 -104 190 -195 192 -203
7 -26 -9 -53 -58 -101 l-48 -47 -61 72 c-95 110 -326 333 -357 344 -18 7 -8
25 43 73 34 32 60 49 77 49 19 0 68 -43 212 -187z"/>
<path d="M3387 5374 c-1 -1 -42 -5 -91 -8 -427 -33 -847 -195 -1216 -470 -138
-102 -351 -318 -463 -467 -201 -267 -346 -598 -422 -965 -40 -192 -50 -560
-20 -739 5 -26 29 -156 41 -223 3 -12 20 -74 39 -137 156 -512 472 -945 920
-1257 273 -190 649 -340 965 -384 30 -4 57 -8 60 -9 16 -5 246 -19 300 -19 70
0 252 11 285 18 11 2 43 6 70 10 467 63 950 311 1309 672 265 266 466 601 574
959 44 145 66 252 91 450 9 71 7 449 -2 495 -3 14 -8 45 -11 70 -3 25 -8 56
-11 70 -3 14 -8 39 -11 55 -37 209 -147 502 -261 697 -39 68 -124 200 -133
208 -3 3 -32 41 -65 84 -53 70 -258 285 -311 326 -10 8 -46 37 -79 64 -173
141 -461 298 -689 375 -65 23 -128 43 -140 45 -11 2 -52 11 -91 20 -95 23
-114 27 -154 32 -19 2 -46 6 -60 9 -76 13 -413 28 -424 19z m358 -207 c327
-45 586 -133 850 -290 281 -168 529 -408 714 -692 150 -231 287 -600 316 -857
23 -198 23 -460 1 -575 -3 -11 -8 -43 -11 -70 -4 -26 -20 -101 -36 -165 -164
-669 -665 -1236 -1309 -1481 -94 -36 -201 -71 -250 -81 -14 -3 -54 -12 -90
-20 -209 -46 -550 -55 -750 -21 -14 3 -43 7 -65 11 -73 11 -268 65 -365 101
-453 168 -866 514 -1105 928 -44 77 -135 263 -135 278 0 7 -4 17 -9 23 -5 5
-25 59 -45 120 -39 124 -52 177 -72 293 -3 18 -7 43 -10 55 -19 98 -25 400
-11 531 29 270 107 530 227 760 53 101 73 138 80 145 3 3 23 32 44 65 221 341
577 631 976 797 80 33 275 95 330 105 14 2 44 8 67 13 22 5 65 13 95 16 29 4
76 10 103 14 55 8 395 5 460 -3z"/>
<path d="M3454 5039 c-47 -23 -54 -55 -54 -244 0 -141 3 -184 16 -210 27 -58
108 -68 152 -19 25 29 24 18 27 234 2 176 -4 204 -47 234 -25 18 -63 20 -94 5z"/>
<path d="M2468 4758 c-39 -42 -34 -74 32 -191 29 -50 61 -106 71 -123 51 -92
54 -95 86 -112 67 -36 151 23 138 96 -7 39 -170 321 -199 344 -11 10 -38 18
-59 18 -31 0 -45 -7 -69 -32z"/>
<path d="M4403 4775 c-12 -8 -46 -57 -75 -108 -29 -50 -57 -99 -63 -108 -38
-61 -65 -123 -65 -148 0 -44 37 -81 86 -88 64 -8 77 9 246 306 47 82 7 161
-80 161 -15 0 -37 -7 -49 -15z"/>
<path d="M3448 4273 c-14 -9 -31 -27 -37 -40 -7 -16 -11 -171 -11 -463 l0
-440 -40 -20 c-56 -28 -112 -87 -141 -146 -33 -70 -34 -188 0 -257 29 -60 89
-119 150 -149 37 -19 62 -23 131 -23 72 0 93 4 136 27 156 82 214 275 128 425
-28 48 -107 121 -141 129 -13 4 -24 11 -24 18 -1 6 -2 210 -3 454 l-1 444 -33
29 c-37 33 -74 37 -114 12z m97 -1137 c37 -16 65 -60 65 -102 0 -40 -39 -93
-77 -103 -109 -31 -190 92 -118 178 23 27 41 35 83 40 7 0 28 -5 47 -13z"/>
<path d="M1775 4067 c-18 -15 -28 -36 -32 -65 -5 -39 -3 -45 29 -75 19 -17 48
-39 64 -47 16 -8 79 -44 139 -79 78 -45 119 -63 142 -63 99 4 129 121 47 179
-16 11 -90 54 -164 96 -149 84 -181 92 -225 54z"/>
<path d="M5105 4074 c-110 -57 -298 -172 -307 -187 -5 -10 -12 -30 -14 -43
-11 -60 65 -125 121 -104 27 10 209 113 287 162 60 37 77 81 53 131 -26 55
-82 71 -140 41z"/>
<path d="M1547 3125 c-46 -15 -73 -72 -57 -120 20 -59 46 -66 250 -67 196 0
225 6 249 56 18 39 5 93 -31 119 -25 18 -43 20 -204 21 -96 1 -190 -3 -207 -9z"/>
<path d="M5078 3129 c-49 -8 -77 -42 -77 -94 0 -44 22 -78 58 -90 12 -4 104
-7 203 -7 203 0 222 6 244 73 14 41 -5 90 -43 110 -25 14 -314 20 -385 8z"/>
<path d="M2095 2333 c-39 -10 -315 -175 -335 -200 -48 -61 2 -153 82 -153 28
0 335 177 353 204 18 24 20 79 4 108 -9 16 -70 51 -81 47 -2 -1 -12 -4 -23 -6z"/>
<path d="M4845 2330 c-50 -19 -74 -82 -50 -133 12 -26 47 -50 177 -124 97 -56
173 -93 190 -93 33 0 85 44 93 80 12 55 -20 88 -183 181 -153 88 -190 103
-227 89z"/>
<path d="M2642 1732 c-28 -25 -188 -301 -197 -341 -7 -33 11 -72 44 -98 20
-15 63 -16 94 -2 27 12 25 10 134 199 83 144 89 161 68 212 -18 46 -104 63
-143 30z"/>
<path d="M4229 1721 c-47 -48 -41 -74 62 -252 50 -87 97 -163 104 -169 8 -7
32 -14 53 -17 33 -4 44 -1 72 24 53 47 46 77 -55 252 -48 83 -98 160 -112 171
-38 30 -88 26 -124 -9z"/>
<path d="M3448 1523 c-43 -27 -48 -52 -48 -244 0 -154 3 -185 17 -210 23 -38
81 -56 121 -37 51 25 58 57 57 262 -1 185 -1 187 -26 212 -33 32 -85 40 -121
17z"/>
</g>
</svg>
