<svg xmlns="http://www.w3.org/2000/svg" xmlns:xlink="http://www.w3.org/1999/xlink" width="800" zoomAndPan="magnify" viewBox="0 0 600 299.999988" height="400" preserveAspectRatio="xMidYMid meet" version="1.0"><defs><g/><clipPath id="7e0afc7090"><path d="M 30 58.046875 L 189 58.046875 L 189 241.796875 L 30 241.796875 Z M 30 58.046875 " clip-rule="nonzero"/></clipPath></defs><g clip-path="url(#7e0afc7090)"><path fill="#ffffff" d="M 174.261719 116.722656 L 177.109375 113.878906 C 179.792969 111.195312 179.792969 106.828125 177.109375 104.148438 L 167.890625 94.929688 C 165.207031 92.246094 160.84375 92.246094 158.160156 94.929688 L 155.3125 97.773438 C 145.824219 91.042969 134.800781 86.34375 122.875 84.308594 L 122.875 76.292969 L 130.480469 76.292969 C 134.273438 76.292969 137.359375 73.207031 137.359375 69.414062 L 137.359375 64.925781 C 137.359375 61.132812 134.273438 58.046875 130.480469 58.046875 L 88.476562 58.046875 C 84.679688 58.046875 81.59375 61.132812 81.59375 64.925781 L 81.59375 69.414062 C 81.59375 73.207031 84.679688 76.292969 88.476562 76.292969 L 96.078125 76.292969 L 96.078125 84.308594 C 84.15625 86.34375 73.128906 91.042969 63.640625 97.773438 L 60.792969 94.929688 C 58.113281 92.246094 53.746094 92.246094 51.066406 94.929688 L 41.847656 104.148438 C 40.550781 105.445312 39.835938 107.171875 39.835938 109.011719 C 39.835938 110.851562 40.550781 112.578125 41.847656 113.878906 L 44.691406 116.722656 C 35.5 129.679688 30.089844 145.5 30.089844 162.558594 C 30.089844 206.335938 65.703125 241.949219 109.476562 241.949219 C 153.253906 241.949219 188.867188 206.335938 188.867188 162.558594 C 188.867188 145.5 183.457031 129.679688 174.261719 116.722656 Z M 161.84375 98.613281 C 162.496094 97.964844 163.554688 97.964844 164.203125 98.613281 L 173.421875 107.832031 C 173.734375 108.144531 173.90625 108.5625 173.90625 109.011719 C 173.90625 109.460938 173.734375 109.878906 173.421875 110.191406 L 171.074219 112.539062 C 167.625 108.296875 163.742188 104.414062 159.5 100.960938 Z M 86.804688 69.414062 L 86.804688 64.925781 C 86.804688 64.007812 87.554688 63.257812 88.476562 63.257812 L 130.480469 63.257812 C 131.398438 63.257812 132.148438 64.007812 132.148438 64.925781 L 132.148438 69.414062 C 132.148438 70.335938 131.398438 71.082031 130.480469 71.082031 L 88.476562 71.082031 C 87.554688 71.082031 86.804688 70.335938 86.804688 69.414062 Z M 101.289062 76.292969 L 117.664062 76.292969 L 117.664062 83.589844 C 114.972656 83.3125 112.242188 83.171875 109.476562 83.171875 C 106.714844 83.171875 103.984375 83.3125 101.289062 83.589844 Z M 45.53125 110.191406 C 45.21875 109.878906 45.046875 109.460938 45.046875 109.011719 C 45.046875 108.5625 45.21875 108.144531 45.53125 107.832031 L 54.75 98.613281 C 55.402344 97.964844 56.460938 97.964844 57.109375 98.613281 L 59.457031 100.960938 C 55.210938 104.414062 51.332031 108.296875 47.878906 112.539062 Z M 109.476562 236.738281 C 68.578125 236.738281 35.300781 203.460938 35.300781 162.558594 C 35.300781 121.660156 68.578125 88.382812 109.476562 88.382812 C 150.378906 88.382812 183.652344 121.660156 183.652344 162.558594 C 183.652344 203.460938 150.378906 236.738281 109.476562 236.738281 Z M 109.476562 100.113281 C 75.042969 100.113281 47.03125 128.128906 47.03125 162.558594 C 47.03125 196.992188 75.042969 225.007812 109.476562 225.007812 C 143.910156 225.007812 171.925781 196.992188 171.925781 162.558594 C 171.925781 128.125 143.910156 100.113281 109.476562 100.113281 Z M 109.476562 219.792969 C 77.917969 219.792969 52.242188 194.121094 52.242188 162.558594 C 52.242188 131 77.917969 105.324219 109.476562 105.324219 C 141.035156 105.324219 166.710938 131 166.710938 162.558594 C 166.710938 194.121094 141.035156 219.792969 109.476562 219.792969 Z M 137.300781 119.582031 L 133.011719 127.011719 C 132.527344 127.847656 131.652344 128.316406 130.75 128.316406 C 130.308594 128.316406 129.859375 128.203125 129.449219 127.964844 C 128.203125 127.246094 127.777344 125.652344 128.496094 124.40625 L 132.785156 116.976562 C 133.503906 115.730469 135.097656 115.304688 136.34375 116.023438 C 137.59375 116.742188 138.019531 118.335938 137.300781 119.582031 Z M 144.070312 142.585938 C 143.351562 141.339844 143.777344 139.746094 145.027344 139.027344 L 152.453125 134.738281 C 153.703125 134.019531 155.296875 134.445312 156.015625 135.691406 C 156.734375 136.9375 156.308594 138.53125 155.0625 139.25 L 147.632812 143.539062 C 147.222656 143.777344 146.773438 143.890625 146.332031 143.890625 C 145.429688 143.890625 144.554688 143.421875 144.070312 142.585938 Z M 163.214844 162.558594 C 163.214844 164 162.046875 165.164062 160.609375 165.164062 L 152.03125 165.164062 C 150.589844 165.164062 149.421875 164 149.421875 162.558594 C 149.421875 161.121094 150.589844 159.953125 152.03125 159.953125 L 160.609375 159.953125 C 162.046875 159.953125 163.214844 161.121094 163.214844 162.558594 Z M 156.015625 189.429688 C 155.53125 190.265625 154.65625 190.730469 153.753906 190.730469 C 153.3125 190.730469 152.867188 190.617188 152.453125 190.382812 L 145.027344 186.09375 C 143.777344 185.371094 143.351562 183.78125 144.070312 182.53125 C 144.792969 181.285156 146.386719 180.859375 147.632812 181.578125 L 155.0625 185.867188 C 156.308594 186.589844 156.734375 188.183594 156.015625 189.429688 Z M 137.300781 205.539062 C 138.019531 206.785156 137.59375 208.378906 136.34375 209.097656 C 135.933594 209.332031 135.488281 209.445312 135.042969 209.445312 C 134.144531 209.445312 133.269531 208.980469 132.785156 208.144531 L 128.496094 200.714844 C 127.777344 199.46875 128.203125 197.875 129.449219 197.152344 C 130.695312 196.433594 132.289062 196.859375 133.011719 198.109375 Z M 112.082031 205.113281 L 112.082031 213.691406 C 112.082031 215.128906 110.917969 216.296875 109.476562 216.296875 C 108.039062 216.296875 106.871094 215.128906 106.871094 213.691406 L 106.871094 205.113281 C 106.871094 203.671875 108.039062 202.503906 109.476562 202.503906 C 110.917969 202.503906 112.082031 203.671875 112.082031 205.113281 Z M 90.457031 200.714844 L 86.167969 208.144531 C 85.6875 208.980469 84.8125 209.445312 83.910156 209.445312 C 83.46875 209.445312 83.019531 209.332031 82.609375 209.097656 C 81.363281 208.378906 80.9375 206.785156 81.65625 205.539062 L 85.945312 198.109375 C 86.664062 196.859375 88.257812 196.433594 89.503906 197.152344 C 90.75 197.875 91.179688 199.46875 90.457031 200.714844 Z M 74.882812 182.53125 C 75.601562 183.78125 75.175781 185.371094 73.929688 186.09375 L 66.5 190.382812 C 66.089844 190.617188 65.640625 190.730469 65.199219 190.730469 C 64.296875 190.730469 63.421875 190.265625 62.941406 189.429688 C 62.21875 188.183594 62.648438 186.589844 63.894531 185.867188 L 71.324219 181.578125 C 72.570312 180.859375 74.164062 181.285156 74.882812 182.53125 Z M 66.925781 165.164062 L 58.347656 165.164062 C 56.90625 165.164062 55.742188 164 55.742188 162.558594 C 55.742188 161.121094 56.90625 159.953125 58.347656 159.953125 L 66.925781 159.953125 C 68.363281 159.953125 69.53125 161.121094 69.53125 162.558594 C 69.53125 164 68.363281 165.164062 66.925781 165.164062 Z M 74.882812 142.585938 C 74.402344 143.421875 73.523438 143.890625 72.625 143.890625 C 72.183594 143.890625 71.734375 143.777344 71.324219 143.539062 L 63.894531 139.25 C 62.648438 138.53125 62.21875 136.9375 62.941406 135.691406 C 63.660156 134.445312 65.253906 134.019531 66.5 134.738281 L 73.929688 139.027344 C 75.175781 139.746094 75.601562 141.339844 74.882812 142.585938 Z M 90.457031 124.40625 C 91.179688 125.652344 90.75 127.246094 89.503906 127.964844 C 89.09375 128.203125 88.644531 128.316406 88.203125 128.316406 C 87.304688 128.316406 86.425781 127.847656 85.945312 127.011719 L 81.65625 119.582031 C 80.9375 118.335938 81.363281 116.742188 82.609375 116.023438 C 83.855469 115.304688 85.449219 115.730469 86.167969 116.976562 Z M 112.082031 154.78125 L 112.082031 131.714844 C 112.082031 130.273438 110.917969 129.105469 109.476562 129.105469 C 108.039062 129.105469 106.871094 130.273438 106.871094 131.714844 L 106.871094 154.78125 C 103.621094 155.875 101.273438 158.949219 101.273438 162.5625 C 101.273438 167.085938 104.953125 170.765625 109.476562 170.765625 C 114 170.765625 117.683594 167.085938 117.683594 162.5625 C 117.683594 158.949219 115.332031 155.875 112.082031 154.78125 Z M 109.476562 165.550781 C 107.828125 165.550781 106.484375 164.210938 106.484375 162.558594 C 106.484375 160.910156 107.828125 159.566406 109.476562 159.566406 C 111.128906 159.566406 112.46875 160.910156 112.46875 162.558594 C 112.46875 164.210938 111.128906 165.550781 109.476562 165.550781 Z M 106.871094 120.007812 L 106.871094 111.429688 C 106.871094 109.988281 108.039062 108.824219 109.476562 108.824219 C 110.917969 108.824219 112.082031 109.988281 112.082031 111.429688 L 112.082031 120.007812 C 112.082031 121.449219 110.917969 122.613281 109.476562 122.613281 C 108.039062 122.613281 106.871094 121.449219 106.871094 120.007812 Z M 106.871094 120.007812 " fill-opacity="1" fill-rule="nonzero"/></g><path stroke-linecap="butt" transform="matrix(0.75, 0, 0, 0.75, 205.194751, 17.912399)" fill="none" stroke-linejoin="miter" d="M 11.985124 55.122014 L 101.573673 55.122014 L 101.573673 81.720975 L 47.594502 81.720975 L 47.594502 100.726185 L 94.021589 100.726185 L 94.021589 126.18452 L 47.594502 126.18452 L 47.594502 166.002232 L 11.985124 166.002232 Z M 194.584098 55.122014 L 238.729935 55.122014 L 198.912223 100.726185 L 239.55806 166.002232 L 197.495556 166.002232 L 174.443471 125.392853 L 155.084094 141.174105 L 155.084094 166.002232 L 119.474716 166.002232 L 119.474716 55.122014 L 155.084094 55.122014 L 155.084094 102.497018 Z M 348.974735 166.002232 L 348.974735 126.023062 C 348.974735 121.095978 349.157027 116.017852 349.526819 110.799102 C 349.917444 105.580352 350.323694 101.200143 350.745569 97.658476 C 351.162235 94.116809 351.42786 91.8616 351.532027 90.887642 L 350.901819 90.887642 L 330.443484 166.002232 L 302.547648 166.002232 L 281.927855 91.043892 L 281.297646 91.043892 C 281.407021 92.01785 281.69348 94.247017 282.167438 97.736601 C 282.636188 101.226185 283.084105 105.580352 283.500771 110.799102 C 283.948688 116.017852 284.172647 121.095978 284.172647 126.023062 L 284.172647 166.002232 L 251.474727 166.002232 L 251.474727 55.122014 L 301.76119 55.122014 L 318.521608 119.101186 L 319.151816 119.101186 L 335.755984 55.122014 L 384.266405 55.122014 L 384.266405 166.002232 Z M 348.974735 166.002232 " stroke="#800000" stroke-width="12.0876" stroke-opacity="1" stroke-miterlimit="4"/><g fill="#ff3131" fill-opacity="1"><g transform="translate(205.241626, 142.412389)"><g><path d="M 8.9375 -83.15625 L 76.15625 -83.15625 L 76.15625 -63.21875 L 35.65625 -63.21875 L 35.65625 -48.953125 L 70.46875 -48.953125 L 70.46875 -29.859375 L 35.65625 -29.859375 L 35.65625 0 L 8.9375 0 Z M 8.9375 -83.15625 "/></g></g></g><g fill="#ff3131" fill-opacity="1"><g transform="translate(285.859993, 142.412389)"><g><path d="M 65.265625 -83.15625 L 98.390625 -83.15625 L 68.53125 -48.953125 L 99 0 L 67.453125 0 L 50.15625 -30.453125 L 35.65625 -18.609375 L 35.65625 0 L 8.9375 0 L 8.9375 -83.15625 L 35.65625 -83.15625 L 35.65625 -47.625 Z M 65.265625 -83.15625 "/></g></g></g><g fill="#ff3131" fill-opacity="1"><g transform="translate(386.542312, 142.412389)"><g><path d="M 80.375 0 L 80.375 -29.984375 C 80.375 -33.679688 80.515625 -37.484375 80.796875 -41.390625 C 81.085938 -45.304688 81.390625 -48.59375 81.703125 -51.25 C 82.023438 -53.90625 82.226562 -55.597656 82.3125 -56.328125 L 81.828125 -56.328125 L 66.484375 0 L 45.5625 0 L 30.09375 -56.203125 L 29.609375 -56.203125 C 29.691406 -55.484375 29.914062 -53.8125 30.28125 -51.1875 C 30.644531 -48.570312 30.988281 -45.304688 31.3125 -41.390625 C 31.632812 -37.484375 31.796875 -33.679688 31.796875 -29.984375 L 31.796875 0 L 7.25 0 L 7.25 -83.15625 L 44.96875 -83.15625 L 57.53125 -35.171875 L 58.015625 -35.171875 L 70.46875 -83.15625 L 106.859375 -83.15625 L 106.859375 0 Z M 80.375 0 "/></g></g></g><path stroke-linecap="butt" transform="matrix(0.75, 0, 0, 0.75, 212.931074, 136.28804)" fill="none" stroke-linejoin="miter" d="M 64.482532 70.772202 L 64.482532 141.001375 L 34.175238 141.001375 L 34.175238 70.772202 L 3.164819 70.772202 L 3.164819 46.626367 L 95.357534 46.626367 L 95.357534 70.772202 Z M 108.21691 60.05866 L 108.21691 41.537825 L 135.545038 41.537825 L 135.545038 60.05866 Z M 108.21691 141.001375 L 108.21691 68.563869 L 135.545038 68.563869 L 135.545038 141.001375 Z M 249.102339 66.923244 C 257.336714 66.923244 263.513798 69.277411 267.617965 73.990953 C 271.72734 78.699286 273.779424 85.397204 273.779424 94.084704 L 273.779424 141.001375 L 246.487755 141.001375 L 246.487755 97.365955 C 246.487755 94.261788 245.727338 91.772204 244.211713 89.897204 C 242.716921 88.022204 240.591921 87.084704 237.847129 87.084704 C 234.654421 87.084704 232.055462 88.18887 230.045045 90.397204 C 228.034629 92.584704 227.02942 95.277413 227.02942 98.470121 L 227.02942 141.001375 L 199.706501 141.001375 L 199.706501 97.365955 C 199.706501 94.261788 198.946084 91.772204 197.425251 89.897204 C 195.930459 88.022204 193.810667 87.084704 191.065876 87.084704 C 187.873167 87.084704 185.269 88.18887 183.258583 90.397204 C 181.253375 92.584704 180.248166 95.277413 180.248166 98.470121 L 180.248166 141.001375 L 152.951289 141.001375 L 152.951289 68.563869 L 175.289833 68.563869 L 177.097124 79.412828 C 179.847125 75.574286 183.472125 72.537827 187.982542 70.303452 C 192.513792 68.048244 197.295043 66.923244 202.315876 66.923244 C 213.211711 66.923244 220.534628 71.084702 224.284628 79.412828 C 227.117962 75.574286 230.74817 72.537827 235.170046 70.303452 C 239.612754 68.048244 244.25338 66.923244 249.102339 66.923244 Z M 327.550262 66.923244 C 340.810679 66.923244 350.93568 70.037827 357.925264 76.266994 C 364.935681 82.475328 368.44089 91.985746 368.44089 104.798247 L 368.44089 109.454497 L 314.123177 109.454497 C 314.123177 114.657623 315.284636 118.584706 317.602344 121.240956 C 319.925261 123.897207 323.607553 125.225332 328.654428 125.225332 C 333.232554 125.225332 336.591929 124.266998 338.737763 122.345123 C 340.878388 120.428456 341.951305 117.871165 341.951305 114.678456 L 368.44089 114.678456 C 368.44089 123.44929 365.102348 130.303457 358.425264 135.240958 C 351.753389 140.17325 342.008596 142.642 329.190887 142.642 C 315.753386 142.642 305.326302 139.517 297.914843 133.261791 C 290.498175 126.990957 286.79505 117.501373 286.79505 104.798247 C 286.79505 92.360746 290.409634 82.944078 297.644009 76.532619 C 304.878385 70.126369 314.847136 66.923244 327.550262 66.923244 Z M 328.654428 84.334703 C 320.060678 84.334703 315.258594 88.412829 314.253386 96.558663 L 340.847138 96.558663 C 340.847138 92.808662 339.774221 89.839912 337.628387 87.652412 C 335.487762 85.444079 332.49297 84.334703 328.654428 84.334703 Z M 328.654428 84.334703 " stroke="#806600" stroke-width="10.28805" stroke-opacity="1" stroke-miterlimit="4"/><g fill="#ffde59" fill-opacity="1"><g transform="translate(212.942793, 242.038031)"><g><path d="M 48.34375 -52.671875 L 48.34375 0 L 25.609375 0 L 25.609375 -52.671875 L 2.359375 -52.671875 L 2.359375 -70.78125 L 71.5 -70.78125 L 71.5 -52.671875 Z M 48.34375 -52.671875 "/></g></g></g><g fill="#ffde59" fill-opacity="1"><g transform="translate(287.212894, 242.038031)"><g><path d="M 6.890625 -60.703125 L 6.890625 -74.578125 L 27.359375 -74.578125 L 27.359375 -60.703125 Z M 6.890625 0 L 6.890625 -54.3125 L 27.359375 -54.3125 L 27.359375 0 Z M 6.890625 0 "/></g></g></g><g fill="#ffde59" fill-opacity="1"><g transform="translate(321.467667, 242.038031)"><g><path d="M 78.28125 -55.546875 C 84.457031 -55.546875 89.085938 -53.78125 92.171875 -50.25 C 95.265625 -46.71875 96.8125 -41.695312 96.8125 -35.1875 L 96.8125 0 L 76.328125 0 L 76.328125 -32.71875 C 76.328125 -35.050781 75.757812 -36.921875 74.625 -38.328125 C 73.5 -39.734375 71.910156 -40.4375 69.859375 -40.4375 C 67.453125 -40.4375 65.492188 -39.609375 63.984375 -37.953125 C 62.472656 -36.304688 61.71875 -34.285156 61.71875 -31.890625 L 61.71875 0 L 41.25 0 L 41.25 -32.71875 C 41.25 -35.050781 40.679688 -36.921875 39.546875 -38.328125 C 38.421875 -39.734375 36.828125 -40.4375 34.765625 -40.4375 C 32.367188 -40.4375 30.414062 -39.609375 28.90625 -37.953125 C 27.394531 -36.304688 26.640625 -34.285156 26.640625 -31.890625 L 26.640625 0 L 6.171875 0 L 6.171875 -54.3125 L 22.9375 -54.3125 L 24.28125 -46.1875 C 26.332031 -49.070312 29.054688 -51.351562 32.453125 -53.03125 C 35.847656 -54.707031 39.429688 -55.546875 43.203125 -55.546875 C 51.367188 -55.546875 56.859375 -52.425781 59.671875 -46.1875 C 61.796875 -49.070312 64.519531 -51.351562 67.84375 -53.03125 C 71.164062 -54.707031 74.644531 -55.546875 78.28125 -55.546875 Z M 78.28125 -55.546875 "/></g></g></g><g fill="#ffde59" fill-opacity="1"><g transform="translate(424.334835, 242.038031)"><g><path d="M 34.25 -55.546875 C 44.195312 -55.546875 51.796875 -53.210938 57.046875 -48.546875 C 62.296875 -43.890625 64.921875 -36.757812 64.921875 -27.15625 L 64.921875 -23.65625 L 24.171875 -23.65625 C 24.171875 -19.75 25.046875 -16.800781 26.796875 -14.8125 C 28.546875 -12.820312 31.304688 -11.828125 35.078125 -11.828125 C 38.503906 -11.828125 41.023438 -12.546875 42.640625 -13.984375 C 44.253906 -15.429688 45.0625 -17.351562 45.0625 -19.75 L 64.921875 -19.75 C 64.921875 -13.164062 62.414062 -8.019531 57.40625 -4.3125 C 52.394531 -0.613281 45.085938 1.234375 35.484375 1.234375 C 25.410156 1.234375 17.59375 -1.113281 12.03125 -5.8125 C 6.476562 -10.507812 3.703125 -17.625 3.703125 -27.15625 C 3.703125 -36.488281 6.410156 -43.550781 11.828125 -48.34375 C 17.242188 -53.144531 24.71875 -55.546875 34.25 -55.546875 Z M 35.078125 -42.484375 C 28.628906 -42.484375 25.03125 -39.429688 24.28125 -33.328125 L 44.234375 -33.328125 C 44.234375 -36.140625 43.425781 -38.367188 41.8125 -40.015625 C 40.207031 -41.660156 37.960938 -42.484375 35.078125 -42.484375 Z M 35.078125 -42.484375 "/></g></g></g></svg>